<svg width="56" height="16" viewBox="0 0 56 16" fill="none" xmlns="http://www.w3.org/2000/svg">
<path d="M3.04282e-05 15.62V0.263995H3.34403V12.65H9.19603V15.62H3.04282e-05ZM16.9452 15.884C15.9332 15.884 15.0092 15.7153 14.1732 15.378C13.3372 15.0407 12.6259 14.542 12.0392 13.882C11.4525 13.2073 10.9979 12.3787 10.6752 11.396C10.3525 10.3987 10.1912 9.24733 10.1912 7.94199C10.1912 6.63666 10.3525 5.49266 10.6752 4.51C10.9979 3.51266 11.4525 2.68399 12.0392 2.02399C12.6259 1.34933 13.3372 0.843328 14.1732 0.505994C15.0092 0.168661 15.9332 -5.72205e-06 16.9452 -5.72205e-06C17.9572 -5.72205e-06 18.8812 0.168661 19.7172 0.505994C20.5532 0.843328 21.2645 1.34933 21.8512 2.02399C22.4379 2.68399 22.8925 3.51266 23.2152 4.51C23.5379 5.49266 23.6992 6.63666 23.6992 7.94199C23.6992 9.24733 23.5379 10.3987 23.2152 11.396C22.8925 12.3787 22.4379 13.2073 21.8512 13.882C21.2645 14.542 20.5532 15.0407 19.7172 15.378C18.8812 15.7153 17.9572 15.884 16.9452 15.884ZM16.9452 12.914C17.9572 12.914 18.7419 12.584 19.2992 11.924C19.8712 11.264 20.1572 10.318 20.1572 9.08599V6.79799C20.1572 5.56599 19.8712 4.61999 19.2992 3.95999C18.7419 3.29999 17.9572 2.96999 16.9452 2.96999C15.9332 2.96999 15.1412 3.29999 14.5692 3.95999C14.0119 4.61999 13.7332 5.56599 13.7332 6.79799V9.08599C13.7332 10.318 14.0119 11.264 14.5692 11.924C15.1412 12.584 15.9332 12.914 16.9452 12.914ZM36.2363 13.178H36.1263C36.0089 13.9553 35.6129 14.6007 34.9383 15.114C34.2636 15.6273 33.3469 15.884 32.1883 15.884C31.3083 15.884 30.4869 15.7153 29.7243 15.378C28.9616 15.0407 28.2943 14.542 27.7223 13.882C27.1503 13.222 26.7029 12.4007 26.3803 11.418C26.0576 10.4353 25.8963 9.29866 25.8963 8.00799C25.8963 6.71733 26.0649 5.57333 26.4023 4.57599C26.7396 3.57866 27.2089 2.74266 27.8103 2.06799C28.4263 1.39333 29.1596 0.879994 30.0103 0.527994C30.8609 0.175994 31.8069 -5.72205e-06 32.8483 -5.72205e-06C34.2269 -5.72205e-06 35.4149 0.300661 36.4123 0.901994C37.4096 1.48866 38.1943 2.37599 38.7663 3.56399L36.0383 5.12599C35.8036 4.52466 35.4369 4.01866 34.9383 3.608C34.4396 3.18266 33.7429 2.96999 32.8483 2.96999C31.8069 2.96999 30.9783 3.27066 30.3623 3.87199C29.7463 4.47333 29.4383 5.41933 29.4383 6.70999V9.17399C29.4383 10.45 29.7463 11.396 30.3623 12.012C30.9783 12.6133 31.8069 12.914 32.8483 12.914C33.2589 12.914 33.6476 12.87 34.0143 12.782C34.3809 12.6793 34.7036 12.5327 34.9823 12.342C35.2609 12.1367 35.4736 11.8947 35.6203 11.616C35.7816 11.3373 35.8623 11.0073 35.8623 10.626V9.85599H33.0023V7.06199H39.0523V15.62H36.2363V13.178ZM48.4628 15.884C47.4508 15.884 46.5268 15.7153 45.6908 15.378C44.8548 15.0407 44.1434 14.542 43.5568 13.882C42.9701 13.2073 42.5154 12.3787 42.1928 11.396C41.8701 10.3987 41.7088 9.24733 41.7088 7.94199C41.7088 6.63666 41.8701 5.49266 42.1928 4.51C42.5154 3.51266 42.9701 2.68399 43.5568 2.02399C44.1434 1.34933 44.8548 0.843328 45.6908 0.505994C46.5268 0.168661 47.4508 -5.72205e-06 48.4628 -5.72205e-06C49.4748 -5.72205e-06 50.3988 0.168661 51.2348 0.505994C52.0708 0.843328 52.7821 1.34933 53.3688 2.02399C53.9554 2.68399 54.4101 3.51266 54.7328 4.51C55.0554 5.49266 55.2168 6.63666 55.2168 7.94199C55.2168 9.24733 55.0554 10.3987 54.7328 11.396C54.4101 12.3787 53.9554 13.2073 53.3688 13.882C52.7821 14.542 52.0708 15.0407 51.2348 15.378C50.3988 15.7153 49.4748 15.884 48.4628 15.884ZM48.4628 12.914C49.4748 12.914 50.2594 12.584 50.8168 11.924C51.3888 11.264 51.6748 10.318 51.6748 9.08599V6.79799C51.6748 5.56599 51.3888 4.61999 50.8168 3.95999C50.2594 3.29999 49.4748 2.96999 48.4628 2.96999C47.4508 2.96999 46.6588 3.29999 46.0868 3.95999C45.5294 4.61999 45.2508 5.56599 45.2508 6.79799V9.08599C45.2508 10.318 45.5294 11.264 46.0868 11.924C46.6588 12.584 47.4508 12.914 48.4628 12.914Z" fill="#14203E" fill-opacity="0.24"/>
</svg>
